<svg data-v-0dd9719b="" version="1.0" xmlns="http://www.w3.org/2000/svg" xmlns:xlink="http://www.w3.org/1999/xlink" width="100%" height="100%" viewBox="0 0 340.000000 250.000000" preserveAspectRatio="xMidYMid meet" color-interpolation-filters="sRGB" style="margin: auto;"> <rect data-v-0dd9719b="" x="0" y="0" width="100%" height="100%" fill="#fff" fill-opacity="1" class="background"></rect> <rect data-v-0dd9719b="" x="0" y="0" width="100%" height="100%" fill="url(#watermark)" fill-opacity="1" class="watermarklayer"></rect> <g data-v-0dd9719b="" fill="#333333" class="icon-text-wrapper icon-svg-group iconsvg" transform="translate(49.52201843261719,94.90067291259766)"><g class="iconsvg-imagesvg" transform="translate(0,0)"><g><rect fill="#333333" fill-opacity="0" stroke-width="2" x="0" y="0" width="60" height="60.19865556335908" class="image-rect"></rect> <svg x="0" y="0" width="60" height="60.19865556335908" filtersec="colorsb5128374910" class="image-svg-svg primary" style="overflow: visible;"><svg xmlns="http://www.w3.org/2000/svg" viewBox="0.006801326759159565 -0.011837341822683811 99.69319915771484 100.023681640625"><g><g><path d="M33.61 97.25A50 50 0 0 0 99.7 55.46zM99.7 44.54A50 50 0 0 0 33.61 2.75z" fill="#29aae1"></path><path d="M32.53 3.14a50.07 50.07 0 0 0-17.81 11.43L70.74 50l-56 35.43a50.07 50.07 0 0 0 17.79 11.43L81.38 50z" fill="#1b639d"></path><path d="M11.08 18.62a50 50 0 0 0 0 62.76L43.79 50z" fill="#333"></path></g></g></svg></svg> <!----></g></g> <g transform="translate(67,11.454326629638672)"><g data-gra="path-name" fill-rule="" class="tp-name iconsvg-namesvg"><g transform="scale(1)"><g><path d="M30.46-15.03L19.52-15.03 19.52-19.13 35.14-19.13 35.14 0 32.02 0 30.85-4.49Q26.75 0.39 19.13 0.59L19.13 0.59Q11.91 0.59 8-3.12L8-3.12Q2.15-8.59 2.34-18.16L2.34-18.16Q3.71-35.92 19.33-36.7L19.33-36.7Q32.6-35.92 34.56-24.99L34.56-24.99 29.87-24.99Q27.92-32.41 19.13-32.6L19.13-32.6Q8-31.82 7.42-17.96L7.42-17.96Q7.42-3.12 19.33-3.12L19.33-3.12Q23.62-3.12 26.75-5.47L26.75-5.47Q30.65-8.59 30.46-15.03L30.46-15.03ZM66.18 0L62.67-10.35 48.22-10.35 44.51 0 39.63 0 53.1-35.73 58.57-35.73 71.45 0 66.18 0ZM55.44-30.46L49.78-14.64 60.91-14.64 55.64-30.46 55.44-30.46ZM104.64-35.73L91.17-14.45 91.17 0 86.29 0 86.29-14.45 72.82-35.73 78.48-35.73 88.63-18.55 98.98-35.73 104.64-35.73ZM137.25-17.77L137.25-17.77Q136.46-31.82 124.75-32.6L124.75-32.6Q112.84-32.02 112.26-17.77L112.26-17.77Q112.84-3.9 124.75-3.32L124.75-3.32Q136.46-4.1 137.25-17.77ZM142.13-17.77L142.13-17.77Q140.95 0 124.75 0.59L124.75 0.59Q108.35 0 107.18-17.77L107.18-17.77Q108.16-36.31 124.75-36.7L124.75-36.7Q140.95-36.12 142.13-17.77ZM171.41-13.28L171.41-35.73 176.29-35.73 176.29-12.69Q175.7 0.2 161.65 0.59L161.65 0.59Q148.57 0.2 147.98-11.91L147.98-11.91 147.98-35.73 152.86-35.73 152.86-13.28Q153.06-3.51 161.84-3.32L161.84-3.32Q171.41-3.51 171.41-13.28L171.41-13.28Z" transform="translate(-2.3340229988098145, 36.70000076293945)"></path></g> <!----> <!----> <!----> <!----> <!----> <!----> <!----></g></g> <!----></g></g><defs v-gra="od"></defs></svg>